<?xml version="1.0" encoding="utf-8"?>
<!-- Generator: Adobe Illustrator 25.0.0, SVG Export Plug-In . SVG Version: 6.00 Build 0)  -->
<svg version="1.1" xmlns="http://www.w3.org/2000/svg" xmlns:xlink="http://www.w3.org/1999/xlink" x="0px" y="0px"
	 viewBox="0 0 210 120" style="enable-background:new 0 0 210 120;" xml:space="preserve">
<style type="text/css">
	.st0{fill:none;stroke:#89564F;stroke-width:1.5;stroke-miterlimit:10;}
	.st1{fill:#89564F;}
	.st2{opacity:0.85;}
	.st3{fill:#2D1B1A;}
</style>
<g id="Calque_1">
</g>
<g id="Calque_2">
	<g>
		<path class="st0" d="M28.83,52.77l27.43,0c0.88,10.7-14.13,19.41-23.77,9.94h-5.37c-4.8,0.04-4.57-6.9,0-6.97h1.83L28.83,52.77z"
			/>
		<path class="st0" d="M40.75,47.77c-2.42,0.07-3.7-1.1-3.83-3.51"/>
		<path class="st0" d="M39.95,41.42c-0.63,6.35,6.37,0.54,5.71,7.2"/>
		<circle class="st1" cx="27.57" cy="59.32" r="1.35"/>
	</g>
	<g class="st2">
		<path class="st3" d="M66.61,67.52v-0.39h1.52V50.94h-1.52v-0.39h8.34v0.39h-1.99v16.19h0.83c1.74,0,3.06-0.73,3.98-2.2
			c0.92-1.46,1.37-3.43,1.37-5.88h0.47v8.48H66.61z"/>
		<path class="st3" d="M86.38,66.24c0.36,0.77,1.01,1.16,1.97,1.16c0.96,0,1.79-0.32,2.49-0.96c0.7-0.64,1.16-1.5,1.36-2.58
			l0.05-0.22l0.43,0.07c-0.22,1.34-0.77,2.39-1.63,3.14c-0.87,0.75-2,1.13-3.39,1.13c-2.1,0-3.73-0.52-4.88-1.56
			s-1.73-2.53-1.73-4.48s0.55-3.47,1.66-4.56c1.11-1.09,2.61-1.63,4.5-1.63c1.55,0,2.84,0.3,3.87,0.9c1.03,0.6,1.55,1.52,1.55,2.76
			c0,1.25-0.48,2.13-1.45,2.65c-0.96,0.52-2.22,0.79-3.77,0.79h-1.56C85.85,64.35,86.03,65.48,86.38,66.24z M85.83,60.64v1.77h0.59
			c0.71,0,1.2-0.25,1.48-0.75c0.28-0.5,0.41-1.23,0.41-2.2c0-2.18-0.37-3.27-1.11-3.27c-0.49,0-0.84,0.29-1.05,0.88
			S85.83,58.86,85.83,60.64z"/>
		<path class="st3" d="M109.31,58.09v0.15c1.56,0.03,2.93,0.37,4.1,1.01c0.62,0.33,1.1,0.78,1.46,1.35s0.53,1.23,0.53,1.97
			c0,3.31-2.56,4.96-7.68,4.96h-8.06v-0.39h1.75V50.94h-1.75v-0.39h8.15c2.4,0,4.15,0.27,5.26,0.82c1.11,0.55,1.66,1.48,1.66,2.8
			s-0.53,2.3-1.6,2.95c-1.07,0.65-2.25,0.97-3.57,0.97H109.31z M108.95,57.03c0.52-0.7,0.78-1.55,0.78-2.54
			c0-0.99-0.25-1.83-0.73-2.52c-0.49-0.69-1.28-1.03-2.37-1.03h-0.4v7.15h0.52C107.7,58.09,108.43,57.74,108.95,57.03z
			 M109.68,65.96c0.5-0.78,0.75-1.92,0.75-3.42c0-1.5-0.33-2.55-1-3.14c-0.66-0.6-1.54-0.9-2.63-0.9h-0.57v8.62h0.71
			C108.27,67.13,109.18,66.74,109.68,65.96z"/>
		<path class="st3" d="M129.05,66.59c0.6,0,0.99-0.82,1.16-2.46l0.43,0.05c-0.3,2.54-1.4,3.81-3.29,3.81
			c-0.79,0-1.43-0.27-1.92-0.82c-0.49-0.55-0.77-1.21-0.83-1.98h-0.14c-0.22,0.88-0.59,1.57-1.11,2.06
			c-0.52,0.49-1.35,0.74-2.48,0.74c-1.13,0-2.08-0.26-2.84-0.77c-0.77-0.52-1.15-1.34-1.15-2.47c0-2.44,2.42-3.66,7.27-3.66v-0.81
			c0-1.59-0.19-2.64-0.57-3.14c-0.17-0.23-0.43-0.43-0.77-0.61c-0.34-0.18-0.75-0.27-1.22-0.27c-0.9,0-1.69,0.21-2.38,0.64
			s-1.03,0.89-1.03,1.4c0,0.15,0.07,0.22,0.21,0.22c0.09,0,0.16-0.03,0.19-0.09c0.03-0.06,0.06-0.11,0.07-0.17
			c0.02-0.06,0.03-0.11,0.05-0.15c0.02-0.04,0.05-0.11,0.11-0.21c0.06-0.1,0.19-0.23,0.41-0.39c0.22-0.16,0.52-0.25,0.9-0.25
			c0.38,0,0.71,0.18,0.98,0.53c0.28,0.35,0.41,0.78,0.41,1.29s-0.18,0.94-0.54,1.29s-0.82,0.53-1.37,0.53c-0.55,0-1.02-0.2-1.41-0.6
			c-0.39-0.4-0.58-0.89-0.58-1.46c0-0.95,0.42-1.7,1.26-2.25s2.04-0.82,3.61-0.82c1.57,0,2.82,0.21,3.76,0.64
			c0.93,0.43,1.56,1.03,1.9,1.81c0.33,0.78,0.5,1.85,0.5,3.21v4.18C128.62,66.25,128.76,66.59,129.05,66.59z M124.14,63.81v-2.29
			c-0.06,0-0.12,0-0.17,0c-0.74,0-1.37,0.21-1.87,0.63c-0.51,0.42-0.76,1.08-0.76,1.99c0,0.91,0.13,1.57,0.38,1.99
			c0.25,0.42,0.59,0.63,1.02,0.63c0.43,0,0.77-0.31,1.02-0.93C124.02,65.2,124.14,64.53,124.14,63.81z"/>
		<path class="st3" d="M136.87,57.74h0.12c0.25-0.59,0.61-1.07,1.07-1.44c0.46-0.37,1.01-0.55,1.67-0.55s1.22,0.22,1.68,0.68
			c0.47,0.45,0.7,1,0.7,1.63s-0.18,1.17-0.54,1.6c-0.36,0.43-0.83,0.64-1.4,0.64s-1.03-0.17-1.39-0.52
			c-0.36-0.34-0.53-0.77-0.53-1.29s0.15-0.94,0.44-1.28c0.29-0.34,0.66-0.5,1.1-0.5s0.8,0.16,1.07,0.49
			c0.13,0.25,0.26,0.37,0.39,0.37s0.2-0.07,0.2-0.22c0-0.1-0.05-0.22-0.14-0.37c-0.38-0.52-0.92-0.79-1.61-0.79
			c-1.94,0-2.92,2.01-2.92,6.04v4.89h1.78v0.39h-7.63v-0.39h1.47V56.61h-1.68v-0.39h1.42c1.72,0,3.3-0.16,4.74-0.47V57.74z"/>
		<path class="st3" d="M143.78,56.61h-1.68v-0.39h1.42c1.72,0,3.3-0.16,4.74-0.47v11.37h1.47v0.39h-7.42v-0.39h1.47V56.61z
			 M146.02,54.72c-0.62,0-1.15-0.22-1.59-0.68c-0.43-0.45-0.65-1-0.65-1.65c0-0.65,0.22-1.2,0.65-1.65c0.43-0.45,0.97-0.68,1.6-0.68
			c0.63,0,1.16,0.23,1.59,0.68c0.43,0.45,0.64,1,0.64,1.65c0,0.65-0.22,1.2-0.65,1.65C147.18,54.5,146.65,54.72,146.02,54.72z"/>
		<path class="st3" d="M159.22,61.37c-0.66-0.35-1.31-0.68-1.96-0.98c-0.65-0.3-1.2-0.65-1.66-1.03c-0.46-0.38-0.69-0.83-0.69-1.35
			c0-0.52,0.23-0.93,0.69-1.25s1.03-0.48,1.73-0.48s1.28,0.09,1.77,0.26c0.48,0.17,0.82,0.36,1.01,0.55
			c0.19,0.2,0.28,0.37,0.28,0.52s-0.07,0.22-0.21,0.22c-0.09,0-0.24-0.12-0.44-0.36c-0.2-0.24-0.51-0.36-0.95-0.36
			s-0.79,0.16-1.08,0.49c-0.28,0.33-0.43,0.75-0.43,1.26c0,0.52,0.17,0.95,0.52,1.29s0.8,0.52,1.36,0.52c0.56,0,1.02-0.21,1.39-0.63
			s0.54-0.93,0.54-1.54c0-0.82-0.36-1.48-1.09-1.98c-0.73-0.5-1.82-0.75-3.27-0.75c-1.96,0-3.4,0.34-4.33,1.01
			c-0.92,0.67-1.39,1.52-1.39,2.56c0,0.62,0.23,1.2,0.69,1.73c0.46,0.53,1.02,0.99,1.68,1.36c0.66,0.38,1.32,0.74,1.98,1.09
			c0.66,0.35,1.21,0.74,1.67,1.16c0.46,0.42,0.69,0.87,0.69,1.35c0,0.48-0.26,0.85-0.77,1.11s-1.13,0.38-1.85,0.38
			s-1.36-0.09-1.93-0.27s-0.98-0.38-1.22-0.59s-0.37-0.39-0.37-0.54s0.06-0.22,0.19-0.22c0.05,0,0.1,0.02,0.17,0.05
			c0.02,0.02,0.03,0.03,0.05,0.05c0.02,0.02,0.03,0.04,0.05,0.06c0.02,0.02,0.04,0.05,0.07,0.09c0.3,0.31,0.66,0.47,1.08,0.47
			s0.77-0.16,1.07-0.48c0.29-0.32,0.44-0.74,0.44-1.27c0-0.52-0.17-0.95-0.52-1.29s-0.81-0.5-1.37-0.5c-0.57,0-1.04,0.21-1.4,0.63
			c-0.36,0.42-0.54,0.91-0.54,1.49s0.15,1.05,0.46,1.44c0.31,0.39,0.71,0.67,1.2,0.85c0.96,0.34,1.91,0.52,2.84,0.52
			c2.07,0,3.62-0.31,4.66-0.93c1.04-0.62,1.55-1.46,1.55-2.51c0-0.69-0.23-1.3-0.69-1.84C160.43,62.17,159.88,61.72,159.22,61.37z"
			/>
		<path class="st3" d="M168.34,52.99c-0.35-0.01-1.01-0.01-1.36-0.02c-0.11,0.78-0.43,1.49-0.99,2.11c-0.7,0.76-1.6,1.14-2.73,1.14
			h-0.66v0.34h1.23v7.84c0,2.39,1.06,3.59,3.17,3.59c1.03,0,1.8-0.33,2.32-1c0.52-0.66,0.85-1.6,1-2.81l-0.43-0.05
			c-0.17,1.64-0.56,2.46-1.16,2.46c-0.28,0-0.43-0.34-0.43-1.01v-9.02h2.2v-0.34h-2.2C168.31,54.99,168.29,53.99,168.34,52.99z"/>
		<path class="st3" d="M183.74,66.59c0.6,0,0.99-0.82,1.16-2.46l0.43,0.05c-0.3,2.54-1.4,3.81-3.29,3.81
			c-0.79,0-1.43-0.27-1.92-0.82c-0.49-0.55-0.77-1.21-0.83-1.98h-0.14c-0.22,0.88-0.59,1.57-1.11,2.06s-1.35,0.74-2.48,0.74
			c-1.13,0-2.08-0.26-2.84-0.77c-0.77-0.52-1.15-1.34-1.15-2.47c0-2.44,2.42-3.66,7.27-3.66v-0.81c0-1.59-0.19-2.64-0.57-3.14
			c-0.17-0.23-0.43-0.43-0.77-0.61c-0.34-0.18-0.75-0.27-1.22-0.27c-0.9,0-1.69,0.21-2.38,0.64s-1.03,0.89-1.03,1.4
			c0,0.15,0.07,0.22,0.21,0.22c0.09,0,0.16-0.03,0.19-0.09c0.03-0.06,0.05-0.11,0.07-0.17c0.02-0.06,0.03-0.11,0.05-0.15
			c0.02-0.04,0.05-0.11,0.11-0.21c0.06-0.1,0.19-0.23,0.42-0.39c0.22-0.16,0.52-0.25,0.9-0.25s0.71,0.18,0.98,0.53
			c0.28,0.35,0.42,0.78,0.42,1.29s-0.18,0.94-0.54,1.29c-0.36,0.35-0.82,0.53-1.38,0.53s-1.02-0.2-1.41-0.6
			c-0.39-0.4-0.58-0.89-0.58-1.46c0-0.95,0.42-1.7,1.26-2.25s2.04-0.82,3.61-0.82c1.57,0,2.82,0.21,3.76,0.64
			c0.93,0.43,1.56,1.03,1.9,1.81c0.33,0.78,0.5,1.85,0.5,3.21v4.18C183.31,66.25,183.45,66.59,183.74,66.59z M178.83,63.81v-2.29
			c-0.06,0-0.12,0-0.17,0c-0.74,0-1.37,0.21-1.87,0.63c-0.51,0.42-0.76,1.08-0.76,1.99c0,0.91,0.13,1.57,0.38,1.99
			s0.59,0.63,1.02,0.63c0.43,0,0.77-0.31,1.02-0.93C178.7,65.2,178.83,64.53,178.83,63.81z"/>
	</g>
</g>
</svg>
