<?xml version="1.0" encoding="utf-8"?>
<!-- Generator: Adobe Illustrator 25.0.0, SVG Export Plug-In . SVG Version: 6.00 Build 0)  -->
<svg version="1.1" xmlns="http://www.w3.org/2000/svg" xmlns:xlink="http://www.w3.org/1999/xlink" x="0px" y="0px"
	 viewBox="0 0 210 120" style="enable-background:new 0 0 210 120;" xml:space="preserve">
<style type="text/css">
	.st0{fill:none;stroke:#89564F;stroke-width:1.5;stroke-miterlimit:10;}
	.st1{fill:#89564F;}
	.st2{opacity:0.85;}
	.st3{fill:#2D1B1A;}
</style>
<g id="Calque_1">
	<g>
		<path d="M59.79,87.02c-0.3,0.06-0.54,0.13-0.74,0.21c-0.12,0.18-0.25,0.39-0.39,0.63l-0.1,0.18c-0.02,0.03-0.05,0.08-0.08,0.14
			c-0.04,0.07-0.09,0.11-0.13,0.11c-0.02,0-0.05-0.01-0.06-0.03c-0.02-0.02-0.03-0.04-0.03-0.06c0-0.04,0.05-0.14,0.15-0.31
			c0.05-0.09,0.13-0.22,0.24-0.39c0.04-0.07,0.07-0.12,0.1-0.16c-0.08,0.02-0.15,0.05-0.21,0.08c-0.03,0.01-0.06,0.02-0.08,0.02
			c-0.03,0-0.05-0.01-0.06-0.04c-0.01-0.01-0.02-0.03-0.02-0.05c0-0.04,0.02-0.08,0.05-0.09c0.05-0.03,0.14-0.07,0.27-0.11
			c0.1-0.03,0.18-0.06,0.23-0.09c0.03-0.03,0.1-0.13,0.21-0.3c0.05-0.07,0.19-0.24,0.42-0.51c0.17-0.2,0.34-0.38,0.52-0.54
			c0.1-0.1,0.18-0.15,0.24-0.15c0.03,0,0.06,0.01,0.09,0.04c0.02,0.02,0.03,0.05,0.03,0.08c0,0.04-0.02,0.1-0.05,0.19
			c-0.06,0.16-0.12,0.33-0.18,0.51c-0.05,0.16-0.08,0.29-0.1,0.37c0.02,0,0.04,0,0.05,0c0.04,0,0.07,0,0.09,0
			c0.08,0,0.11,0.03,0.11,0.09c0,0.02-0.01,0.05-0.02,0.07s-0.03,0.04-0.06,0.04c-0.01,0-0.03,0-0.06,0c-0.07,0-0.13,0-0.17,0.01
			c-0.03,0.09-0.08,0.33-0.15,0.71c-0.04,0.25-0.05,0.41-0.05,0.46c0,0.09-0.03,0.14-0.08,0.14c-0.04,0-0.08-0.02-0.1-0.07
			c-0.02-0.03-0.03-0.07-0.03-0.13c0-0.18,0.03-0.42,0.1-0.73C59.75,87.22,59.77,87.1,59.79,87.02z M59.84,86.81
			c0.01-0.04,0.04-0.14,0.09-0.3c0.01-0.04,0.04-0.13,0.09-0.26c0.05-0.13,0.09-0.24,0.12-0.32c-0.08,0.06-0.17,0.13-0.26,0.22
			c-0.31,0.33-0.52,0.6-0.65,0.81c0.05-0.01,0.15-0.04,0.31-0.09C59.58,86.87,59.69,86.84,59.84,86.81z"/>
		<path d="M64.69,87.93c0.14-0.1,0.24-0.19,0.31-0.28c0.1-0.12,0.17-0.22,0.21-0.29c0.02-0.03,0.04-0.05,0.06-0.05
			c0.03,0,0.05,0.01,0.05,0.04c0,0.04-0.02,0.09-0.07,0.18c-0.15,0.25-0.38,0.47-0.69,0.65c-0.14,0.3-0.25,0.5-0.32,0.61
			c-0.18,0.28-0.35,0.42-0.51,0.42c-0.08,0-0.14-0.03-0.18-0.1c-0.02-0.04-0.03-0.08-0.03-0.13c0-0.2,0.13-0.4,0.39-0.59
			c0.04-0.03,0.21-0.13,0.51-0.29c0.06-0.12,0.1-0.22,0.13-0.29c-0.14,0.14-0.25,0.21-0.34,0.21c-0.06,0-0.1-0.03-0.13-0.09
			c-0.02-0.04-0.03-0.08-0.03-0.12c0-0.09,0.04-0.21,0.12-0.36c0.11-0.21,0.24-0.38,0.39-0.5c0.13-0.1,0.24-0.15,0.34-0.15
			c0.05,0,0.09,0.02,0.13,0.06c0.02,0.02,0.04,0.06,0.04,0.11c0,0.06-0.02,0.13-0.06,0.22c0.03,0.03,0.04,0.05,0.04,0.06
			c0,0.01-0.01,0.02-0.02,0.04c-0.04,0.05-0.09,0.14-0.17,0.27C64.8,87.69,64.74,87.81,64.69,87.93z M64.31,88.33
			c-0.17,0.07-0.32,0.18-0.46,0.33c-0.06,0.07-0.1,0.14-0.13,0.22c-0.01,0.02-0.01,0.04-0.01,0.06c0,0.02,0,0.03,0.01,0.04
			c0.01,0.02,0.03,0.04,0.06,0.04c0.08,0,0.18-0.09,0.28-0.26C64.16,88.61,64.24,88.47,64.31,88.33z M64.68,87.48
			c-0.02-0.02-0.03-0.03-0.03-0.04c0-0.01,0.01-0.03,0.03-0.04c0.06-0.06,0.12-0.13,0.16-0.2c0.03-0.05,0.05-0.09,0.05-0.12
			c0-0.04-0.02-0.05-0.05-0.05c-0.06,0-0.14,0.05-0.24,0.16c-0.12,0.13-0.22,0.27-0.29,0.42c-0.03,0.08-0.05,0.14-0.05,0.18
			c0,0.02,0.01,0.04,0.02,0.05s0.03,0.02,0.04,0.02c0.05,0,0.11-0.05,0.19-0.14c0.05-0.06,0.1-0.12,0.13-0.18
			C64.67,87.5,64.68,87.48,64.68,87.48z"/>
		<path d="M67.54,86.84c0.11,0,0.16,0.07,0.16,0.2c0,0.17-0.08,0.39-0.24,0.66c-0.17,0.29-0.34,0.43-0.51,0.43
			c-0.08,0-0.13-0.04-0.17-0.11c-0.02-0.04-0.03-0.08-0.03-0.13c0-0.17,0.06-0.35,0.17-0.54c0.11-0.18,0.23-0.32,0.38-0.42
			C67.39,86.87,67.47,86.84,67.54,86.84z M67.34,87.58c-0.03-0.03-0.05-0.05-0.05-0.06c0-0.01,0.02-0.04,0.06-0.09
			c0.12-0.13,0.18-0.24,0.18-0.32c0-0.01,0-0.02-0.01-0.03c-0.01-0.02-0.03-0.03-0.05-0.03c-0.04,0-0.1,0.04-0.18,0.12
			c-0.1,0.1-0.18,0.21-0.24,0.32c-0.06,0.13-0.1,0.23-0.1,0.31c0,0.02,0.01,0.04,0.02,0.06c0.02,0.02,0.04,0.04,0.06,0.04
			c0.06,0,0.13-0.05,0.2-0.14c0.03-0.04,0.06-0.08,0.08-0.12S67.34,87.58,67.34,87.58z"/>
		<path d="M69.93,86.84c0.11,0,0.16,0.07,0.16,0.2c0,0.17-0.08,0.39-0.24,0.66c-0.17,0.29-0.34,0.43-0.51,0.43
			c-0.08,0-0.13-0.04-0.17-0.11c-0.02-0.04-0.03-0.08-0.03-0.13c0-0.17,0.06-0.35,0.17-0.54c0.11-0.18,0.23-0.32,0.38-0.42
			C69.78,86.87,69.86,86.84,69.93,86.84z M69.72,87.58c-0.03-0.03-0.05-0.05-0.05-0.06c0-0.01,0.02-0.04,0.06-0.09
			c0.12-0.13,0.18-0.24,0.18-0.32c0-0.01,0-0.02-0.01-0.03c-0.01-0.02-0.03-0.03-0.05-0.03c-0.04,0-0.1,0.04-0.18,0.12
			c-0.1,0.1-0.18,0.21-0.24,0.32c-0.06,0.13-0.1,0.23-0.1,0.31c0,0.02,0.01,0.04,0.02,0.06c0.02,0.02,0.04,0.04,0.06,0.04
			c0.06,0,0.13-0.05,0.2-0.14c0.03-0.04,0.06-0.08,0.08-0.12S69.73,87.58,69.72,87.58z"/>
		<path d="M72.35,86.96c0.13-0.27,0.25-0.51,0.37-0.71c0.11-0.2,0.19-0.32,0.23-0.37c0.04-0.06,0.09-0.08,0.12-0.08
			c0.02,0,0.04,0.01,0.06,0.03c0.02,0.02,0.02,0.04,0.02,0.05c0,0.03-0.02,0.08-0.07,0.15c-0.19,0.3-0.36,0.61-0.52,0.93
			c-0.18,0.37-0.27,0.64-0.27,0.82c0,0.07,0.01,0.13,0.04,0.18c0.01,0.01,0.03,0.03,0.07,0.06c0.01,0.01,0.01,0.02,0.01,0.04
			c0,0.03-0.01,0.05-0.03,0.07s-0.04,0.03-0.07,0.03c-0.03,0-0.06-0.02-0.1-0.05c-0.05-0.05-0.08-0.11-0.09-0.18
			c0-0.03-0.01-0.08-0.01-0.16c-0.14,0.25-0.27,0.37-0.39,0.37c-0.07,0-0.13-0.04-0.17-0.12c-0.03-0.05-0.04-0.11-0.04-0.18
			c0-0.2,0.07-0.41,0.22-0.61c0.15-0.2,0.31-0.3,0.47-0.3C72.25,86.91,72.3,86.93,72.35,86.96z M72.28,87.12
			c-0.04-0.02-0.07-0.04-0.09-0.04c-0.11,0-0.21,0.07-0.31,0.2c-0.13,0.17-0.19,0.34-0.19,0.51c0,0.02,0,0.04,0.01,0.05
			c0.02,0.03,0.04,0.05,0.07,0.05c0.05,0,0.1-0.04,0.17-0.13c0.09-0.12,0.17-0.26,0.24-0.42c0.03-0.05,0.05-0.11,0.08-0.16
			l0.02-0.04L72.28,87.12z"/>
		<path d="M77.31,86.96c0.13-0.27,0.25-0.51,0.37-0.71c0.11-0.2,0.19-0.32,0.23-0.37c0.04-0.06,0.09-0.08,0.12-0.08
			c0.02,0,0.04,0.01,0.06,0.03c0.02,0.02,0.02,0.04,0.02,0.05c0,0.03-0.02,0.08-0.07,0.15c-0.19,0.3-0.36,0.61-0.52,0.93
			c-0.18,0.37-0.27,0.64-0.27,0.82c0,0.07,0.01,0.13,0.04,0.18c0.01,0.01,0.03,0.03,0.07,0.06c0.01,0.01,0.01,0.02,0.01,0.04
			c0,0.03-0.01,0.05-0.03,0.07s-0.04,0.03-0.07,0.03c-0.03,0-0.06-0.02-0.1-0.05c-0.05-0.05-0.08-0.11-0.09-0.18
			c0-0.03-0.01-0.08-0.01-0.16c-0.14,0.25-0.27,0.37-0.39,0.37c-0.07,0-0.13-0.04-0.17-0.12c-0.03-0.05-0.04-0.11-0.04-0.18
			c0-0.2,0.07-0.41,0.22-0.61c0.15-0.2,0.31-0.3,0.47-0.3C77.22,86.91,77.26,86.93,77.31,86.96z M77.25,87.12
			c-0.04-0.02-0.07-0.04-0.09-0.04c-0.11,0-0.21,0.07-0.31,0.2c-0.13,0.17-0.19,0.34-0.19,0.51c0,0.02,0,0.04,0.01,0.05
			c0.02,0.03,0.04,0.05,0.07,0.05c0.05,0,0.1-0.04,0.17-0.13c0.09-0.12,0.17-0.26,0.24-0.42c0.03-0.05,0.05-0.11,0.08-0.16
			l0.02-0.04L77.25,87.12z"/>
		<path d="M79.61,87.78c-0.04,0.08-0.09,0.14-0.13,0.19c-0.08,0.1-0.16,0.15-0.24,0.15c-0.07,0-0.12-0.03-0.16-0.1
			c-0.02-0.04-0.04-0.09-0.04-0.15c0-0.14,0.05-0.3,0.14-0.48c0.1-0.19,0.22-0.34,0.37-0.45c0.09-0.07,0.18-0.1,0.27-0.1
			c0.05,0,0.1,0.02,0.14,0.05c0.03,0.03,0.05,0.06,0.05,0.1c0,0.03-0.01,0.07-0.03,0.12c0.02,0.03,0.03,0.05,0.03,0.07
			c0,0.03-0.02,0.07-0.05,0.13c-0.04,0.06-0.08,0.15-0.11,0.25c-0.04,0.11-0.06,0.2-0.06,0.27c0,0.05,0.02,0.1,0.05,0.13
			c0.01,0.01,0.04,0.02,0.08,0.04c0.03,0.02,0.05,0.04,0.05,0.08c0,0.02-0.01,0.04-0.03,0.06c-0.02,0.02-0.04,0.03-0.07,0.03
			c-0.07,0-0.13-0.03-0.18-0.09c-0.04-0.05-0.06-0.11-0.06-0.19C79.6,87.88,79.6,87.84,79.61,87.78z M79.85,87.13
			c-0.02-0.03-0.03-0.05-0.05-0.06s-0.04-0.02-0.06-0.02c-0.1,0-0.21,0.09-0.32,0.26c-0.13,0.19-0.19,0.35-0.19,0.49
			c0,0.03,0.01,0.06,0.02,0.07s0.03,0.03,0.06,0.03c0.06,0,0.14-0.07,0.22-0.2c0.05-0.07,0.1-0.18,0.17-0.32
			c0.05-0.09,0.08-0.15,0.1-0.18C79.8,87.18,79.82,87.16,79.85,87.13z"/>
		<path d="M82.23,87.55c-0.12,0.14-0.21,0.24-0.28,0.3c-0.14,0.13-0.25,0.2-0.34,0.2c-0.04,0-0.08-0.02-0.11-0.05
			c-0.02-0.03-0.03-0.06-0.03-0.1c0-0.14,0.08-0.33,0.25-0.56c0.17-0.24,0.29-0.36,0.37-0.36c0.02,0,0.04,0.01,0.05,0.03
			c0.01,0.01,0.02,0.03,0.02,0.05c0,0.03-0.01,0.05-0.02,0.08s-0.06,0.07-0.13,0.14c-0.07,0.08-0.14,0.16-0.21,0.25
			c-0.07,0.1-0.11,0.18-0.11,0.22c0,0.03,0.01,0.04,0.04,0.04c0.05,0,0.15-0.07,0.29-0.21c0.09-0.09,0.16-0.17,0.21-0.23
			c0.01-0.01,0.06-0.08,0.14-0.19c0.07-0.1,0.12-0.16,0.13-0.17c0.04-0.05,0.08-0.07,0.11-0.07c0.02,0,0.04,0.01,0.06,0.03
			c0.02,0.02,0.02,0.04,0.02,0.06c0,0.04-0.03,0.1-0.08,0.19c-0.06,0.11-0.12,0.21-0.17,0.3c-0.08,0.15-0.15,0.28-0.19,0.39
			c0.08-0.05,0.16-0.11,0.23-0.18c0.12-0.12,0.19-0.2,0.21-0.26c0.02-0.05,0.05-0.08,0.08-0.08c0.04,0,0.05,0.02,0.05,0.05
			c0,0.07-0.06,0.17-0.18,0.31c-0.14,0.16-0.31,0.3-0.52,0.42c-0.11,0.26-0.21,0.48-0.31,0.65c-0.18,0.32-0.37,0.48-0.56,0.48
			c-0.08,0-0.14-0.03-0.19-0.09c-0.04-0.05-0.06-0.11-0.06-0.18c0-0.2,0.14-0.41,0.43-0.62c0.08-0.06,0.21-0.14,0.37-0.23
			c0.07-0.04,0.12-0.07,0.16-0.09c0.02-0.06,0.06-0.14,0.11-0.24C82.14,87.74,82.19,87.64,82.23,87.55z M81.87,88.32
			c-0.14,0.07-0.28,0.17-0.42,0.3c-0.15,0.13-0.22,0.26-0.22,0.38c0,0.02,0.01,0.05,0.02,0.06c0.02,0.02,0.04,0.04,0.08,0.04
			c0.1,0,0.21-0.1,0.32-0.31c0.02-0.03,0.07-0.15,0.16-0.34C81.83,88.41,81.85,88.37,81.87,88.32z"/>
		<path d="M87.69,86.8c0.08,0,0.14,0.01,0.18,0.04s0.06,0.07,0.06,0.13c0,0.08-0.03,0.15-0.09,0.22c-0.05,0.07-0.14,0.12-0.25,0.16
			c-0.06,0.02-0.11,0.03-0.15,0.03c-0.05,0-0.08-0.02-0.08-0.07c0-0.03,0.02-0.06,0.05-0.07c0.01,0,0.05-0.01,0.13-0.03
			c0.05-0.01,0.09-0.03,0.13-0.07c0.04-0.03,0.05-0.06,0.05-0.1c0-0.03-0.01-0.05-0.02-0.06s-0.04-0.02-0.07-0.02
			c-0.08,0-0.16,0.03-0.25,0.09c-0.11,0.07-0.16,0.15-0.16,0.25c0,0.07,0.03,0.15,0.1,0.25c0.08,0.11,0.12,0.2,0.12,0.28
			c0,0.11-0.05,0.2-0.15,0.27c-0.06,0.04-0.13,0.06-0.21,0.06c-0.12,0-0.22-0.04-0.29-0.13c-0.05-0.06-0.07-0.14-0.07-0.23
			c0-0.1,0.03-0.19,0.08-0.26c0.03-0.05,0.07-0.07,0.11-0.07c0.03,0,0.05,0.01,0.05,0.04c0,0.01-0.01,0.03-0.02,0.05
			c-0.03,0.06-0.04,0.12-0.04,0.2c0,0.06,0.02,0.12,0.07,0.16c0.04,0.04,0.09,0.06,0.14,0.06c0.05,0,0.09-0.02,0.12-0.05
			c0.02-0.03,0.04-0.07,0.04-0.11c0-0.05-0.03-0.13-0.09-0.21c-0.09-0.12-0.13-0.23-0.13-0.33c0-0.13,0.07-0.25,0.21-0.35
			C87.39,86.85,87.54,86.8,87.69,86.8z"/>
		<path d="M89.99,86.84c-0.08,0.13-0.16,0.28-0.23,0.44c-0.1,0.23-0.15,0.41-0.15,0.52c0,0.03,0.01,0.06,0.02,0.07
			s0.03,0.03,0.06,0.03c0.06,0,0.14-0.06,0.24-0.18c0.06-0.08,0.11-0.15,0.16-0.23c0.02-0.04,0.05-0.06,0.08-0.06
			c0.02,0,0.03,0.01,0.04,0.02c0.01,0.01,0.02,0.02,0.02,0.04c0,0.05-0.06,0.16-0.19,0.32c-0.15,0.2-0.29,0.3-0.41,0.3
			c-0.07,0-0.12-0.03-0.17-0.09c-0.03-0.04-0.04-0.09-0.04-0.17c0-0.16,0.05-0.34,0.14-0.55c0.02-0.05,0.08-0.18,0.18-0.38
			c-0.04,0.01-0.06,0.01-0.08,0.01c-0.03,0-0.05-0.01-0.07-0.02c-0.03-0.02-0.04-0.04-0.04-0.07c0-0.03,0.02-0.06,0.06-0.08
			c0.01,0,0.06-0.01,0.14-0.03c0.03,0,0.08-0.02,0.14-0.04c0.05-0.08,0.12-0.19,0.22-0.33c0.06-0.08,0.1-0.13,0.12-0.15
			c0.03-0.03,0.06-0.05,0.08-0.05c0.02,0,0.03,0.01,0.05,0.03c0.02,0.02,0.02,0.03,0.02,0.05c0,0.03-0.04,0.1-0.11,0.2
			c-0.05,0.07-0.08,0.12-0.11,0.16c0.14-0.04,0.25-0.06,0.31-0.06c0.07,0,0.11,0.03,0.11,0.09c0,0.03-0.01,0.05-0.04,0.07
			c-0.01,0.01-0.05,0.01-0.1,0.02c-0.02,0-0.12,0.02-0.29,0.07C90.08,86.81,90.04,86.83,89.99,86.84z"/>
		<path d="M92.28,87.78c-0.04,0.08-0.09,0.14-0.13,0.19c-0.08,0.1-0.16,0.15-0.24,0.15c-0.07,0-0.12-0.03-0.16-0.1
			c-0.02-0.04-0.04-0.09-0.04-0.15c0-0.14,0.05-0.3,0.14-0.48c0.1-0.19,0.22-0.34,0.37-0.45c0.09-0.07,0.18-0.1,0.27-0.1
			c0.05,0,0.1,0.02,0.14,0.05c0.03,0.03,0.05,0.06,0.05,0.1c0,0.03-0.01,0.07-0.03,0.12c0.02,0.03,0.03,0.05,0.03,0.07
			c0,0.03-0.02,0.07-0.05,0.13c-0.04,0.06-0.08,0.15-0.11,0.25c-0.04,0.11-0.06,0.2-0.06,0.27c0,0.05,0.02,0.1,0.05,0.13
			c0.01,0.01,0.04,0.02,0.08,0.04c0.03,0.02,0.05,0.04,0.05,0.08c0,0.02-0.01,0.04-0.03,0.06c-0.02,0.02-0.04,0.03-0.07,0.03
			c-0.07,0-0.13-0.03-0.18-0.09c-0.04-0.05-0.06-0.11-0.06-0.19C92.28,87.88,92.28,87.84,92.28,87.78z M92.53,87.13
			c-0.02-0.03-0.03-0.05-0.05-0.06s-0.04-0.02-0.06-0.02c-0.1,0-0.21,0.09-0.32,0.26c-0.13,0.19-0.19,0.35-0.19,0.49
			c0,0.03,0.01,0.06,0.02,0.07s0.03,0.03,0.06,0.03c0.06,0,0.14-0.07,0.22-0.2c0.05-0.07,0.1-0.18,0.17-0.32
			c0.05-0.09,0.08-0.15,0.1-0.18C92.48,87.18,92.5,87.16,92.53,87.13z"/>
		<path d="M94.56,87.46c0.13-0.14,0.27-0.27,0.44-0.4c0.06-0.05,0.12-0.09,0.19-0.13c0.03-0.02,0.06-0.03,0.06-0.03
			c0.02,0,0.04,0.01,0.06,0.04c0.01,0.02,0.02,0.03,0.02,0.04c0,0.02-0.02,0.06-0.07,0.1c-0.13,0.11-0.2,0.18-0.2,0.24
			c0,0.03,0.02,0.04,0.05,0.04c0.06,0,0.15-0.05,0.29-0.14c0.02-0.02,0.04-0.02,0.06-0.02c0.01,0,0.02,0,0.03,0.02
			c0.01,0.01,0.02,0.02,0.02,0.04c0,0.04-0.05,0.1-0.16,0.18c-0.11,0.09-0.22,0.13-0.33,0.13c-0.04,0-0.08-0.01-0.12-0.03
			c-0.03-0.02-0.04-0.05-0.04-0.1c0-0.03,0.01-0.07,0.04-0.11c-0.1,0.07-0.22,0.2-0.36,0.38c-0.08,0.11-0.16,0.24-0.24,0.4
			c-0.03,0.06-0.07,0.09-0.11,0.09c-0.05,0-0.07-0.02-0.07-0.07c0-0.04,0.04-0.16,0.11-0.36c0.11-0.29,0.23-0.51,0.35-0.67
			c0.08-0.1,0.14-0.15,0.19-0.15c0.02,0,0.03,0,0.05,0.02c0.02,0.01,0.03,0.03,0.03,0.05s-0.01,0.05-0.04,0.08
			c-0.01,0.01-0.04,0.05-0.1,0.13C94.64,87.31,94.59,87.38,94.56,87.46z"/>
		<path d="M97.6,86.84c-0.08,0.13-0.16,0.28-0.23,0.44c-0.1,0.23-0.15,0.41-0.15,0.52c0,0.03,0.01,0.06,0.02,0.07
			s0.03,0.03,0.06,0.03c0.06,0,0.14-0.06,0.24-0.18c0.06-0.08,0.11-0.15,0.16-0.23c0.02-0.04,0.05-0.06,0.08-0.06
			c0.02,0,0.03,0.01,0.04,0.02c0.01,0.01,0.02,0.02,0.02,0.04c0,0.05-0.06,0.16-0.19,0.32c-0.15,0.2-0.29,0.3-0.41,0.3
			c-0.07,0-0.12-0.03-0.17-0.09c-0.03-0.04-0.04-0.09-0.04-0.17c0-0.16,0.05-0.34,0.14-0.55c0.02-0.05,0.08-0.18,0.18-0.38
			c-0.04,0.01-0.06,0.01-0.08,0.01c-0.03,0-0.05-0.01-0.07-0.02c-0.03-0.02-0.04-0.04-0.04-0.07c0-0.03,0.02-0.06,0.06-0.08
			c0.01,0,0.06-0.01,0.14-0.03c0.03,0,0.08-0.02,0.14-0.04c0.05-0.08,0.12-0.19,0.22-0.33c0.06-0.08,0.1-0.13,0.12-0.15
			c0.03-0.03,0.06-0.05,0.08-0.05c0.02,0,0.03,0.01,0.05,0.03c0.02,0.02,0.02,0.03,0.02,0.05c0,0.03-0.04,0.1-0.11,0.2
			c-0.05,0.07-0.08,0.12-0.11,0.16c0.14-0.04,0.25-0.06,0.31-0.06c0.07,0,0.11,0.03,0.11,0.09c0,0.03-0.01,0.05-0.04,0.07
			c-0.01,0.01-0.05,0.01-0.1,0.02c-0.02,0-0.12,0.02-0.29,0.07C97.7,86.81,97.65,86.83,97.6,86.84z"/>
		<path d="M100.22,86.8c0.08,0,0.14,0.01,0.18,0.04s0.06,0.07,0.06,0.13c0,0.08-0.03,0.15-0.09,0.22c-0.05,0.07-0.14,0.12-0.25,0.16
			c-0.06,0.02-0.11,0.03-0.15,0.03c-0.05,0-0.08-0.02-0.08-0.07c0-0.03,0.02-0.06,0.05-0.07c0.01,0,0.05-0.01,0.13-0.03
			c0.05-0.01,0.09-0.03,0.13-0.07c0.04-0.03,0.05-0.06,0.05-0.1c0-0.03-0.01-0.05-0.02-0.06s-0.04-0.02-0.07-0.02
			c-0.08,0-0.16,0.03-0.25,0.09c-0.11,0.07-0.16,0.15-0.16,0.25c0,0.07,0.03,0.15,0.1,0.25c0.08,0.11,0.12,0.2,0.12,0.28
			c0,0.11-0.05,0.2-0.15,0.27c-0.06,0.04-0.13,0.06-0.21,0.06c-0.12,0-0.22-0.04-0.29-0.13c-0.05-0.06-0.07-0.14-0.07-0.23
			c0-0.1,0.03-0.19,0.08-0.26c0.03-0.05,0.07-0.07,0.11-0.07c0.03,0,0.05,0.01,0.05,0.04c0,0.01-0.01,0.03-0.02,0.05
			c-0.03,0.06-0.04,0.12-0.04,0.2c0,0.06,0.02,0.12,0.07,0.16c0.04,0.04,0.09,0.06,0.14,0.06c0.05,0,0.09-0.02,0.12-0.05
			c0.02-0.03,0.04-0.07,0.04-0.11c0-0.05-0.03-0.13-0.09-0.21c-0.09-0.12-0.13-0.23-0.13-0.33c0-0.13,0.07-0.25,0.21-0.35
			C99.92,86.85,100.07,86.8,100.22,86.8z"/>
		<path d="M104.94,87.55c-0.11,0.15-0.19,0.25-0.25,0.31c-0.07,0.07-0.12,0.13-0.17,0.16c-0.05,0.04-0.11,0.06-0.15,0.06
			c-0.05,0-0.08-0.02-0.11-0.07c-0.02-0.04-0.03-0.07-0.03-0.12c0-0.14,0.08-0.34,0.25-0.59c0.15-0.23,0.27-0.34,0.34-0.34
			c0.02,0,0.04,0.01,0.05,0.03c0.02,0.02,0.02,0.03,0.02,0.05c0,0.03-0.03,0.07-0.08,0.12c-0.11,0.11-0.2,0.23-0.28,0.36
			c-0.07,0.11-0.1,0.19-0.1,0.22c0,0.03,0.01,0.04,0.04,0.04c0.08,0,0.25-0.17,0.51-0.51c0.08-0.11,0.14-0.17,0.15-0.19
			c0.03-0.03,0.07-0.05,0.1-0.05c0.02,0,0.04,0.01,0.06,0.02c0.01,0.01,0.02,0.03,0.02,0.04c0,0.02-0.03,0.08-0.09,0.2
			c-0.14,0.25-0.21,0.42-0.21,0.51c0,0.03,0.01,0.05,0.04,0.05c0.05,0,0.11-0.05,0.19-0.16c0.08-0.1,0.15-0.23,0.22-0.39
			c0.03-0.07,0.05-0.16,0.08-0.27c0.03-0.13,0.08-0.19,0.16-0.19c0.04,0,0.07,0.02,0.07,0.07c0,0.17-0.1,0.41-0.29,0.7
			c-0.2,0.31-0.36,0.47-0.5,0.47c-0.1,0-0.15-0.06-0.15-0.19C104.84,87.83,104.87,87.7,104.94,87.55z"/>
		<path d="M107.75,86.93c0.02,0,0.04,0.01,0.05,0.03c0.01,0.01,0.02,0.03,0.02,0.04c0,0.02-0.02,0.06-0.06,0.12
			c-0.14,0.21-0.23,0.38-0.29,0.52c-0.06,0.14-0.12,0.28-0.16,0.43c-0.02,0.07-0.05,0.1-0.1,0.1c-0.03,0-0.05-0.01-0.06-0.03
			c-0.01-0.02-0.02-0.04-0.02-0.05c0-0.04,0.04-0.17,0.12-0.39c0.06-0.17,0.17-0.37,0.32-0.58c0.05-0.07,0.08-0.12,0.11-0.14
			C107.7,86.94,107.72,86.93,107.75,86.93z M108.12,86.21c0.06,0,0.09,0.03,0.09,0.09c0,0.05-0.03,0.12-0.09,0.18
			c-0.05,0.06-0.11,0.1-0.16,0.1c-0.03,0-0.04-0.01-0.06-0.03c-0.02-0.02-0.02-0.04-0.02-0.06c0-0.06,0.03-0.13,0.1-0.2
			C108.03,86.23,108.08,86.21,108.12,86.21z"/>
		<path d="M109.94,86.84c-0.08,0.13-0.16,0.28-0.23,0.44c-0.1,0.23-0.15,0.41-0.15,0.52c0,0.03,0.01,0.06,0.02,0.07
			s0.03,0.03,0.06,0.03c0.06,0,0.14-0.06,0.24-0.18c0.06-0.08,0.11-0.15,0.16-0.23c0.02-0.04,0.05-0.06,0.08-0.06
			c0.02,0,0.03,0.01,0.04,0.02c0.01,0.01,0.02,0.02,0.02,0.04c0,0.05-0.06,0.16-0.19,0.32c-0.15,0.2-0.29,0.3-0.41,0.3
			c-0.07,0-0.12-0.03-0.17-0.09c-0.03-0.04-0.04-0.09-0.04-0.17c0-0.16,0.04-0.34,0.14-0.55c0.02-0.05,0.08-0.18,0.18-0.38
			c-0.04,0.01-0.06,0.01-0.08,0.01c-0.03,0-0.05-0.01-0.07-0.02c-0.03-0.02-0.04-0.04-0.04-0.07c0-0.03,0.02-0.06,0.06-0.08
			c0.01,0,0.06-0.01,0.14-0.03c0.03,0,0.08-0.02,0.14-0.04c0.04-0.08,0.12-0.19,0.22-0.33c0.06-0.08,0.1-0.13,0.12-0.15
			c0.03-0.03,0.06-0.05,0.08-0.05c0.02,0,0.03,0.01,0.05,0.03c0.02,0.02,0.02,0.03,0.02,0.05c0,0.03-0.04,0.1-0.11,0.2
			c-0.05,0.07-0.08,0.12-0.11,0.16c0.14-0.04,0.25-0.06,0.31-0.06c0.07,0,0.11,0.03,0.11,0.09c0,0.03-0.01,0.05-0.04,0.07
			c-0.01,0.01-0.05,0.01-0.1,0.02c-0.02,0-0.12,0.02-0.29,0.07C110.03,86.81,109.98,86.83,109.94,86.84z"/>
		<path d="M112.13,87.3c0.1-0.1,0.19-0.18,0.29-0.25c0.12-0.09,0.21-0.13,0.27-0.13c0.02,0,0.04,0.01,0.06,0.03
			c0.02,0.02,0.04,0.04,0.04,0.07c0,0.04-0.03,0.09-0.08,0.16c-0.11,0.14-0.19,0.27-0.25,0.39c-0.05,0.1-0.07,0.17-0.07,0.21
			c0,0.04,0.02,0.05,0.05,0.05c0.07,0,0.19-0.12,0.36-0.38c0.03-0.05,0.06-0.08,0.09-0.08s0.04,0.02,0.04,0.05
			c0,0.05-0.05,0.15-0.15,0.29c-0.09,0.12-0.18,0.22-0.27,0.29c-0.07,0.05-0.13,0.07-0.18,0.07c-0.06,0-0.1-0.02-0.12-0.07
			c-0.02-0.03-0.02-0.06-0.02-0.1c0-0.12,0.04-0.25,0.12-0.4c0.02-0.04,0.08-0.14,0.18-0.3c-0.27,0.13-0.49,0.42-0.67,0.87
			c-0.02,0.05-0.04,0.08-0.08,0.08c-0.03,0-0.04-0.01-0.06-0.03c-0.02-0.02-0.02-0.04-0.02-0.07c0-0.04,0.04-0.17,0.12-0.37
			c0.15-0.37,0.3-0.69,0.43-0.95c0.13-0.26,0.28-0.53,0.45-0.81c0.04-0.07,0.07-0.11,0.09-0.14c0.02-0.02,0.04-0.04,0.07-0.04
			c0.02,0,0.04,0.01,0.06,0.04c0.01,0.02,0.02,0.04,0.02,0.06c0,0.04-0.02,0.08-0.06,0.15c-0.14,0.22-0.28,0.46-0.42,0.72
			C112.26,87.01,112.17,87.2,112.13,87.3z"/>
		<path d="M117.4,87.78c-0.04,0.08-0.09,0.14-0.13,0.19c-0.08,0.1-0.16,0.15-0.24,0.15c-0.07,0-0.12-0.03-0.16-0.1
			c-0.03-0.04-0.04-0.09-0.04-0.15c0-0.14,0.04-0.3,0.14-0.48c0.1-0.19,0.22-0.34,0.37-0.45c0.09-0.07,0.18-0.1,0.27-0.1
			c0.05,0,0.1,0.02,0.14,0.05c0.03,0.03,0.05,0.06,0.05,0.1c0,0.03-0.01,0.07-0.03,0.12c0.02,0.03,0.03,0.05,0.03,0.07
			c0,0.03-0.02,0.07-0.05,0.13c-0.04,0.06-0.08,0.15-0.11,0.25c-0.04,0.11-0.06,0.2-0.06,0.27c0,0.05,0.02,0.1,0.05,0.13
			c0.01,0.01,0.04,0.02,0.08,0.04c0.03,0.02,0.05,0.04,0.05,0.08c0,0.02-0.01,0.04-0.03,0.06c-0.02,0.02-0.04,0.03-0.07,0.03
			c-0.07,0-0.13-0.03-0.18-0.09c-0.04-0.05-0.06-0.11-0.06-0.19C117.39,87.88,117.4,87.84,117.4,87.78z M117.65,87.13
			c-0.02-0.03-0.03-0.05-0.05-0.06c-0.02-0.01-0.04-0.02-0.06-0.02c-0.1,0-0.21,0.09-0.32,0.26c-0.13,0.19-0.19,0.35-0.19,0.49
			c0,0.03,0.01,0.06,0.02,0.07c0.01,0.02,0.03,0.03,0.06,0.03c0.06,0,0.13-0.07,0.22-0.2c0.05-0.07,0.1-0.18,0.17-0.32
			c0.04-0.09,0.08-0.15,0.1-0.18C117.6,87.18,117.62,87.16,117.65,87.13z"/>
		<path d="M122.37,87.93c0.14-0.1,0.24-0.19,0.31-0.28c0.1-0.12,0.17-0.22,0.21-0.29c0.02-0.03,0.04-0.05,0.06-0.05
			c0.03,0,0.05,0.01,0.05,0.04c0,0.04-0.03,0.09-0.07,0.18c-0.15,0.25-0.38,0.47-0.69,0.65c-0.14,0.3-0.25,0.5-0.32,0.61
			c-0.18,0.28-0.35,0.42-0.51,0.42c-0.08,0-0.14-0.03-0.18-0.1c-0.02-0.04-0.03-0.08-0.03-0.13c0-0.2,0.13-0.4,0.39-0.59
			c0.04-0.03,0.21-0.13,0.51-0.29c0.06-0.12,0.1-0.22,0.13-0.29c-0.14,0.14-0.25,0.21-0.34,0.21c-0.06,0-0.1-0.03-0.13-0.09
			c-0.02-0.04-0.03-0.08-0.03-0.12c0-0.09,0.04-0.21,0.12-0.36c0.11-0.21,0.24-0.38,0.39-0.5c0.13-0.1,0.24-0.15,0.34-0.15
			c0.05,0,0.09,0.02,0.13,0.06c0.02,0.02,0.04,0.06,0.04,0.11c0,0.06-0.02,0.13-0.06,0.22c0.03,0.03,0.04,0.05,0.04,0.06
			c0,0.01-0.01,0.02-0.02,0.04c-0.04,0.05-0.09,0.14-0.17,0.27C122.48,87.69,122.42,87.81,122.37,87.93z M121.98,88.33
			c-0.17,0.07-0.32,0.18-0.46,0.33c-0.06,0.07-0.11,0.14-0.13,0.22c-0.01,0.02-0.01,0.04-0.01,0.06c0,0.02,0,0.03,0.01,0.04
			c0.01,0.02,0.03,0.04,0.06,0.04c0.08,0,0.17-0.09,0.28-0.26C121.84,88.61,121.92,88.47,121.98,88.33z M122.35,87.48
			c-0.02-0.02-0.03-0.03-0.03-0.04c0-0.01,0.01-0.03,0.03-0.04c0.06-0.06,0.12-0.13,0.16-0.2c0.03-0.05,0.05-0.09,0.05-0.12
			c0-0.04-0.02-0.05-0.05-0.05c-0.06,0-0.14,0.05-0.24,0.16c-0.12,0.13-0.22,0.27-0.29,0.42c-0.03,0.08-0.05,0.14-0.05,0.18
			c0,0.02,0,0.04,0.02,0.05c0.01,0.01,0.03,0.02,0.04,0.02c0.04,0,0.11-0.05,0.19-0.14c0.05-0.06,0.1-0.12,0.13-0.18
			C122.34,87.5,122.35,87.48,122.35,87.48z"/>
		<path d="M125.22,86.84c0.11,0,0.16,0.07,0.16,0.2c0,0.17-0.08,0.39-0.24,0.66c-0.17,0.29-0.34,0.43-0.51,0.43
			c-0.08,0-0.13-0.04-0.17-0.11c-0.02-0.04-0.03-0.08-0.03-0.13c0-0.17,0.06-0.35,0.17-0.54c0.11-0.18,0.23-0.32,0.38-0.42
			C125.07,86.87,125.15,86.84,125.22,86.84z M125.01,87.58c-0.03-0.03-0.05-0.05-0.05-0.06c0-0.01,0.02-0.04,0.06-0.09
			c0.12-0.13,0.18-0.24,0.18-0.32c0-0.01,0-0.02-0.01-0.03c-0.01-0.02-0.03-0.03-0.05-0.03c-0.04,0-0.1,0.04-0.18,0.12
			c-0.1,0.1-0.18,0.21-0.24,0.32c-0.06,0.13-0.1,0.23-0.1,0.31c0,0.02,0.01,0.04,0.02,0.06c0.02,0.02,0.04,0.04,0.06,0.04
			c0.06,0,0.13-0.05,0.2-0.14c0.03-0.04,0.06-0.08,0.08-0.12S125.02,87.58,125.01,87.58z"/>
		<path d="M127.61,86.84c0.11,0,0.16,0.07,0.16,0.2c0,0.17-0.08,0.39-0.24,0.66c-0.17,0.29-0.34,0.43-0.51,0.43
			c-0.08,0-0.13-0.04-0.17-0.11c-0.02-0.04-0.03-0.08-0.03-0.13c0-0.17,0.06-0.35,0.17-0.54c0.11-0.18,0.23-0.32,0.38-0.42
			C127.46,86.87,127.54,86.84,127.61,86.84z M127.4,87.58c-0.03-0.03-0.05-0.05-0.05-0.06c0-0.01,0.02-0.04,0.06-0.09
			c0.12-0.13,0.18-0.24,0.18-0.32c0-0.01,0-0.02-0.01-0.03c-0.01-0.02-0.03-0.03-0.05-0.03c-0.04,0-0.1,0.04-0.18,0.12
			c-0.1,0.1-0.18,0.21-0.24,0.32c-0.06,0.13-0.1,0.23-0.1,0.31c0,0.02,0.01,0.04,0.02,0.06c0.02,0.02,0.04,0.04,0.06,0.04
			c0.06,0,0.13-0.05,0.2-0.14c0.03-0.04,0.06-0.08,0.08-0.12S127.4,87.58,127.4,87.58z"/>
		<path d="M130.03,86.96c0.13-0.27,0.25-0.51,0.37-0.71c0.11-0.2,0.19-0.32,0.23-0.37c0.04-0.06,0.09-0.08,0.12-0.08
			c0.02,0,0.04,0.01,0.06,0.03c0.02,0.02,0.02,0.04,0.02,0.05c0,0.03-0.02,0.08-0.07,0.15c-0.19,0.3-0.36,0.61-0.52,0.93
			c-0.18,0.37-0.27,0.64-0.27,0.82c0,0.07,0.01,0.13,0.04,0.18c0,0.01,0.03,0.03,0.07,0.06c0.01,0.01,0.01,0.02,0.01,0.04
			c0,0.03-0.01,0.05-0.03,0.07c-0.02,0.02-0.04,0.03-0.07,0.03c-0.03,0-0.06-0.02-0.1-0.05c-0.05-0.05-0.08-0.11-0.09-0.18
			c0-0.03-0.01-0.08-0.01-0.16c-0.14,0.25-0.27,0.37-0.39,0.37c-0.07,0-0.13-0.04-0.17-0.12c-0.03-0.05-0.04-0.11-0.04-0.18
			c0-0.2,0.07-0.41,0.22-0.61c0.15-0.2,0.3-0.3,0.47-0.3C129.93,86.91,129.98,86.93,130.03,86.96z M129.96,87.12
			c-0.04-0.02-0.07-0.04-0.09-0.04c-0.11,0-0.21,0.07-0.31,0.2c-0.13,0.17-0.19,0.34-0.19,0.51c0,0.02,0,0.04,0.01,0.05
			c0.02,0.03,0.04,0.05,0.07,0.05c0.04,0,0.1-0.04,0.17-0.13c0.09-0.12,0.17-0.26,0.24-0.42c0.03-0.05,0.05-0.11,0.08-0.16
			l0.02-0.04L129.96,87.12z"/>
		<path d="M134.91,86.89c0.1,0,0.15,0.05,0.15,0.16c0,0.09-0.04,0.19-0.11,0.29c-0.06,0.07-0.11,0.11-0.15,0.11
			c-0.04,0-0.05-0.02-0.05-0.06c0-0.02,0-0.04,0.02-0.05c0,0,0.02-0.02,0.05-0.04c0.02-0.02,0.05-0.06,0.07-0.1
			c0.02-0.03,0.03-0.05,0.03-0.07c0-0.02-0.01-0.03-0.04-0.03c-0.03,0-0.07,0.02-0.12,0.06c-0.09,0.07-0.18,0.18-0.27,0.32
			c-0.09,0.15-0.14,0.27-0.14,0.36c0,0.03,0.01,0.05,0.03,0.08c0.02,0.03,0.06,0.05,0.1,0.05c0.08,0,0.18-0.05,0.29-0.15
			c0.09-0.09,0.17-0.17,0.24-0.26c0.03-0.05,0.06-0.07,0.09-0.07c0.01,0,0.03,0.01,0.04,0.02c0.01,0.01,0.02,0.03,0.02,0.04
			c0,0.05-0.06,0.14-0.19,0.28c-0.2,0.22-0.38,0.33-0.54,0.33c-0.1,0-0.17-0.03-0.22-0.1c-0.04-0.05-0.05-0.11-0.05-0.18
			c0-0.14,0.06-0.29,0.17-0.47c0.11-0.17,0.23-0.31,0.38-0.41C134.78,86.92,134.85,86.89,134.91,86.89z"/>
		<path d="M137.51,86.84c0.11,0,0.16,0.07,0.16,0.2c0,0.17-0.08,0.39-0.24,0.66c-0.17,0.29-0.34,0.43-0.51,0.43
			c-0.08,0-0.13-0.04-0.17-0.11c-0.02-0.04-0.03-0.08-0.03-0.13c0-0.17,0.06-0.35,0.17-0.54c0.11-0.18,0.23-0.32,0.38-0.42
			C137.37,86.87,137.44,86.84,137.51,86.84z M137.31,87.58c-0.03-0.03-0.05-0.05-0.05-0.06c0-0.01,0.02-0.04,0.06-0.09
			c0.12-0.13,0.18-0.24,0.18-0.32c0-0.01,0-0.02-0.01-0.03c-0.01-0.02-0.03-0.03-0.05-0.03c-0.04,0-0.1,0.04-0.18,0.12
			c-0.1,0.1-0.18,0.21-0.24,0.32c-0.06,0.13-0.1,0.23-0.1,0.31c0,0.02,0.01,0.04,0.02,0.06c0.02,0.02,0.04,0.04,0.06,0.04
			c0.06,0,0.13-0.05,0.2-0.14c0.03-0.04,0.06-0.08,0.08-0.12S137.31,87.58,137.31,87.58z"/>
		<path d="M139.47,87.18c0.2-0.43,0.39-0.78,0.58-1.05c0.13-0.18,0.24-0.32,0.32-0.4c0.06-0.06,0.11-0.09,0.15-0.09
			c0.02,0,0.03,0,0.04,0.02c0.02,0.01,0.03,0.03,0.03,0.05c0,0.03-0.02,0.07-0.07,0.12c-0.29,0.33-0.55,0.72-0.78,1.18
			c0.21-0.08,0.35-0.12,0.44-0.12c0.06,0,0.11,0.01,0.15,0.04c0.04,0.03,0.06,0.07,0.06,0.11c0,0.02-0.01,0.04-0.02,0.06
			c-0.02,0.02-0.04,0.04-0.08,0.04c-0.02,0-0.07-0.02-0.13-0.05c-0.02-0.01-0.04-0.01-0.07-0.01c-0.13,0-0.29,0.06-0.47,0.18
			c0.08,0.04,0.13,0.08,0.17,0.14c0.04,0.08,0.07,0.19,0.07,0.31c0,0.32-0.09,0.66-0.29,1.01c-0.08,0.15-0.16,0.27-0.24,0.34
			c-0.08,0.08-0.17,0.13-0.25,0.13c-0.06,0-0.12-0.03-0.16-0.09c-0.03-0.05-0.05-0.12-0.05-0.21c0-0.19,0.07-0.48,0.22-0.87
			c0.02-0.05,0.07-0.17,0.16-0.36c0.02-0.05,0.04-0.1,0.06-0.15c-0.01,0-0.02,0-0.03,0c-0.04,0-0.05-0.02-0.05-0.06
			C139.23,87.37,139.31,87.28,139.47,87.18z M139.53,87.43c-0.07,0.14-0.17,0.36-0.29,0.67c-0.12,0.31-0.19,0.56-0.19,0.73
			c0,0.03,0.01,0.06,0.03,0.09c0.02,0.03,0.04,0.04,0.06,0.04c0.08,0,0.19-0.14,0.32-0.41c0.15-0.3,0.22-0.58,0.22-0.83
			c0-0.1-0.02-0.17-0.06-0.22C139.62,87.48,139.59,87.46,139.53,87.43z"/>
		<path d="M141.95,87.18c0.2-0.43,0.39-0.78,0.58-1.05c0.13-0.18,0.24-0.32,0.32-0.4c0.06-0.06,0.11-0.09,0.15-0.09
			c0.02,0,0.03,0,0.04,0.02c0.02,0.01,0.03,0.03,0.03,0.05c0,0.03-0.02,0.07-0.07,0.12c-0.29,0.33-0.55,0.72-0.78,1.18
			c0.21-0.08,0.35-0.12,0.44-0.12c0.06,0,0.11,0.01,0.15,0.04c0.04,0.03,0.06,0.07,0.06,0.11c0,0.02-0.01,0.04-0.02,0.06
			c-0.02,0.02-0.04,0.04-0.08,0.04c-0.02,0-0.07-0.02-0.13-0.05c-0.02-0.01-0.04-0.01-0.07-0.01c-0.13,0-0.29,0.06-0.47,0.18
			c0.08,0.04,0.13,0.08,0.17,0.14c0.04,0.08,0.07,0.19,0.07,0.31c0,0.32-0.09,0.66-0.29,1.01c-0.08,0.15-0.16,0.27-0.24,0.34
			c-0.08,0.08-0.17,0.13-0.25,0.13c-0.07,0-0.12-0.03-0.16-0.09c-0.03-0.05-0.05-0.12-0.05-0.21c0-0.19,0.07-0.48,0.22-0.87
			c0.02-0.05,0.07-0.17,0.16-0.36c0.02-0.05,0.04-0.1,0.06-0.15c-0.01,0-0.02,0-0.03,0c-0.04,0-0.05-0.02-0.05-0.06
			C141.71,87.37,141.79,87.28,141.95,87.18z M142.02,87.43c-0.07,0.14-0.17,0.36-0.29,0.67c-0.12,0.31-0.19,0.56-0.19,0.73
			c0,0.03,0.01,0.06,0.03,0.09c0.02,0.03,0.04,0.04,0.06,0.04c0.08,0,0.19-0.14,0.32-0.41c0.15-0.3,0.22-0.58,0.22-0.83
			c0-0.1-0.02-0.17-0.06-0.22C142.1,87.48,142.07,87.46,142.02,87.43z"/>
		<path d="M144.26,87.72v0.04c0,0.03,0.01,0.05,0.02,0.07c0.03,0.05,0.09,0.07,0.16,0.07c0.16,0,0.35-0.12,0.56-0.38
			c0.04-0.04,0.07-0.06,0.1-0.06c0.01,0,0.03,0.01,0.04,0.02c0.01,0.01,0.01,0.02,0.01,0.03c0,0.05-0.06,0.14-0.19,0.26
			c-0.1,0.09-0.2,0.17-0.31,0.23s-0.21,0.09-0.31,0.09c-0.1,0-0.17-0.03-0.23-0.1c-0.04-0.05-0.06-0.11-0.06-0.19
			c0-0.22,0.1-0.44,0.31-0.65c0.17-0.17,0.31-0.26,0.44-0.26c0.03,0,0.06,0.01,0.09,0.03c0.03,0.03,0.05,0.06,0.05,0.11
			c0,0.07-0.03,0.15-0.1,0.25C144.72,87.5,144.53,87.65,144.26,87.72z M144.3,87.57c0.09-0.03,0.16-0.07,0.21-0.11
			c0.09-0.07,0.16-0.15,0.22-0.24c0.02-0.03,0.03-0.06,0.03-0.08c0-0.03-0.01-0.04-0.04-0.04c-0.03,0-0.08,0.03-0.14,0.08
			C144.47,87.27,144.38,87.4,144.3,87.57z"/>
		<path d="M146.82,87.72v0.04c0,0.03,0.01,0.05,0.02,0.07c0.03,0.05,0.09,0.07,0.16,0.07c0.16,0,0.35-0.12,0.56-0.38
			c0.04-0.04,0.07-0.06,0.1-0.06c0.01,0,0.03,0.01,0.04,0.02c0.01,0.01,0.01,0.02,0.01,0.03c0,0.05-0.06,0.14-0.19,0.26
			c-0.1,0.09-0.2,0.17-0.31,0.23S147,88.1,146.9,88.1c-0.1,0-0.17-0.03-0.23-0.1c-0.04-0.05-0.06-0.11-0.06-0.19
			c0-0.22,0.1-0.44,0.31-0.65c0.17-0.17,0.31-0.26,0.44-0.26c0.03,0,0.06,0.01,0.09,0.03c0.03,0.03,0.05,0.06,0.05,0.11
			c0,0.07-0.03,0.15-0.1,0.25C147.28,87.5,147.08,87.65,146.82,87.72z M146.86,87.57c0.09-0.03,0.16-0.07,0.21-0.11
			c0.09-0.07,0.16-0.15,0.22-0.24c0.02-0.03,0.03-0.06,0.03-0.08c0-0.03-0.01-0.04-0.04-0.04c-0.03,0-0.08,0.03-0.14,0.08
			C147.03,87.27,146.94,87.4,146.86,87.57z"/>
	</g>
</g>
<g id="Calque_2">
	<g>
		<path class="st0" d="M91.94,40.67l27.43,0c0.88,10.7-14.13,19.41-23.77,9.94h-5.37c-4.8,0.04-4.57-6.9,0-6.97l1.83,0L91.94,40.67z
			"/>
		<path class="st0" d="M103.86,35.67c-2.42,0.07-3.7-1.1-3.83-3.51"/>
		<path class="st0" d="M103.06,29.33c-0.63,6.35,6.37,0.54,5.71,7.2"/>
		<circle class="st1" cx="90.68" cy="47.22" r="1.35"/>
	</g>
	<g class="st2">
		<path class="st3" d="M43.7,80.51v-0.39h1.52V63.93H43.7v-0.39h8.34v0.39h-1.99v16.19h0.83c1.74,0,3.06-0.73,3.98-2.2
			c0.92-1.46,1.37-3.43,1.37-5.88h0.47v8.48H43.7z"/>
		<path class="st3" d="M63.48,79.23c0.36,0.77,1.01,1.16,1.97,1.16c0.96,0,1.79-0.32,2.49-0.96c0.7-0.64,1.16-1.5,1.36-2.58
			l0.05-0.22l0.43,0.07c-0.22,1.34-0.77,2.39-1.63,3.14c-0.87,0.75-2,1.13-3.39,1.13c-2.1,0-3.73-0.52-4.88-1.56
			s-1.73-2.53-1.73-4.48s0.55-3.47,1.66-4.56c1.11-1.09,2.61-1.63,4.5-1.63c1.55,0,2.84,0.3,3.87,0.9c1.03,0.6,1.55,1.52,1.55,2.76
			c0,1.25-0.48,2.13-1.45,2.65c-0.96,0.52-2.22,0.79-3.77,0.79h-1.56C62.94,77.33,63.12,78.46,63.48,79.23z M62.92,73.63v1.77h0.59
			c0.71,0,1.2-0.25,1.48-0.75c0.28-0.5,0.41-1.23,0.41-2.2c0-2.18-0.37-3.27-1.11-3.27c-0.49,0-0.84,0.29-1.05,0.88
			S62.92,71.85,62.92,73.63z"/>
		<path class="st3" d="M86.4,71.08v0.15c1.56,0.03,2.93,0.37,4.1,1.01c0.62,0.33,1.1,0.78,1.46,1.35s0.53,1.23,0.53,1.97
			c0,3.31-2.56,4.96-7.68,4.96h-8.06v-0.39h1.75V63.93h-1.75v-0.39h8.15c2.4,0,4.15,0.27,5.26,0.82c1.11,0.55,1.66,1.48,1.66,2.8
			s-0.53,2.3-1.6,2.95c-1.07,0.65-2.25,0.97-3.57,0.97H86.4z M86.05,70.02c0.52-0.7,0.78-1.55,0.78-2.54c0-0.99-0.25-1.83-0.73-2.52
			c-0.49-0.69-1.28-1.03-2.37-1.03h-0.4v7.15h0.52C84.79,71.08,85.53,70.72,86.05,70.02z M86.77,78.95c0.5-0.78,0.75-1.92,0.75-3.42
			s-0.33-2.55-1-3.14c-0.66-0.6-1.54-0.9-2.63-0.9h-0.57v8.62h0.71C85.36,80.12,86.27,79.73,86.77,78.95z"/>
		<path class="st3" d="M106.14,79.58c0.6,0,0.99-0.82,1.16-2.46l0.43,0.05c-0.3,2.54-1.4,3.81-3.29,3.81
			c-0.79,0-1.43-0.27-1.92-0.82c-0.49-0.55-0.77-1.21-0.83-1.98h-0.14c-0.22,0.88-0.59,1.57-1.11,2.06
			c-0.52,0.49-1.35,0.74-2.48,0.74c-1.13,0-2.08-0.26-2.84-0.77c-0.77-0.52-1.15-1.34-1.15-2.47c0-2.44,2.42-3.66,7.27-3.66v-0.81
			c0-1.59-0.19-2.64-0.57-3.14c-0.17-0.23-0.43-0.43-0.77-0.61c-0.34-0.18-0.75-0.27-1.22-0.27c-0.9,0-1.69,0.21-2.38,0.64
			s-1.03,0.89-1.03,1.4c0,0.15,0.07,0.22,0.21,0.22c0.09,0,0.16-0.03,0.19-0.09c0.03-0.06,0.06-0.11,0.07-0.17
			c0.02-0.06,0.03-0.11,0.05-0.15c0.02-0.04,0.05-0.11,0.11-0.21c0.06-0.1,0.19-0.23,0.41-0.39c0.22-0.16,0.52-0.25,0.9-0.25
			c0.38,0,0.71,0.18,0.98,0.53c0.28,0.35,0.41,0.78,0.41,1.29s-0.18,0.94-0.54,1.29s-0.82,0.53-1.37,0.53c-0.55,0-1.02-0.2-1.41-0.6
			c-0.39-0.4-0.58-0.89-0.58-1.46c0-0.95,0.42-1.7,1.26-2.25s2.04-0.82,3.61-0.82c1.57,0,2.82,0.21,3.76,0.64
			c0.93,0.43,1.56,1.03,1.9,1.81c0.33,0.78,0.5,1.85,0.5,3.21v4.18C105.71,79.24,105.86,79.58,106.14,79.58z M101.24,76.8v-2.29
			c-0.06,0-0.12,0-0.17,0c-0.74,0-1.37,0.21-1.87,0.63c-0.51,0.42-0.76,1.08-0.76,1.99s0.13,1.57,0.38,1.99
			c0.25,0.42,0.59,0.63,1.02,0.63c0.43,0,0.77-0.31,1.02-0.93C101.11,78.19,101.24,77.52,101.24,76.8z"/>
		<path class="st3" d="M113.96,70.73h0.12c0.25-0.59,0.61-1.07,1.07-1.44c0.46-0.37,1.01-0.55,1.67-0.55s1.22,0.22,1.68,0.68
			c0.47,0.45,0.7,1,0.7,1.63s-0.18,1.17-0.54,1.6c-0.36,0.43-0.83,0.64-1.4,0.64s-1.03-0.17-1.39-0.52
			c-0.36-0.34-0.53-0.77-0.53-1.29s0.15-0.94,0.44-1.28c0.29-0.34,0.66-0.5,1.1-0.5s0.8,0.16,1.07,0.49
			c0.13,0.25,0.26,0.37,0.39,0.37s0.2-0.07,0.2-0.22c0-0.1-0.05-0.22-0.14-0.37c-0.38-0.52-0.92-0.79-1.61-0.79
			c-1.94,0-2.92,2.01-2.92,6.04v4.89h1.78v0.39h-7.63v-0.39h1.47V69.6h-1.68v-0.39h1.42c1.72,0,3.3-0.16,4.74-0.47V70.73z"/>
		<path class="st3" d="M120.88,69.6h-1.68v-0.39h1.42c1.72,0,3.3-0.16,4.74-0.47v11.38h1.47v0.39h-7.42v-0.39h1.47V69.6z
			 M123.12,67.71c-0.62,0-1.15-0.22-1.59-0.68c-0.43-0.45-0.65-1-0.65-1.65c0-0.65,0.22-1.2,0.65-1.65c0.43-0.45,0.97-0.68,1.6-0.68
			c0.63,0,1.16,0.23,1.59,0.68c0.43,0.45,0.64,1,0.64,1.65c0,0.65-0.22,1.2-0.65,1.65C124.27,67.48,123.74,67.71,123.12,67.71z"/>
		<path class="st3" d="M136.32,74.35c-0.66-0.35-1.31-0.68-1.96-0.98c-0.65-0.3-1.2-0.65-1.66-1.03c-0.46-0.38-0.69-0.83-0.69-1.35
			c0-0.52,0.23-0.93,0.69-1.25s1.03-0.48,1.73-0.48s1.28,0.09,1.77,0.26c0.48,0.17,0.82,0.36,1.01,0.55
			c0.19,0.2,0.28,0.37,0.28,0.52s-0.07,0.22-0.21,0.22c-0.09,0-0.24-0.12-0.44-0.36c-0.2-0.24-0.51-0.36-0.95-0.36
			s-0.79,0.16-1.08,0.49c-0.28,0.33-0.43,0.75-0.43,1.26c0,0.52,0.17,0.95,0.52,1.29s0.8,0.52,1.36,0.52c0.56,0,1.02-0.21,1.39-0.63
			s0.54-0.93,0.54-1.54c0-0.82-0.36-1.48-1.09-1.98c-0.73-0.5-1.82-0.75-3.27-0.75c-1.96,0-3.4,0.34-4.33,1.01
			c-0.92,0.67-1.39,1.52-1.39,2.56c0,0.62,0.23,1.2,0.69,1.73c0.46,0.53,1.02,0.99,1.68,1.36c0.66,0.38,1.32,0.74,1.98,1.09
			c0.66,0.35,1.21,0.74,1.67,1.16c0.46,0.42,0.69,0.87,0.69,1.35c0,0.48-0.26,0.85-0.77,1.11s-1.13,0.38-1.85,0.38
			s-1.36-0.09-1.93-0.27s-0.98-0.38-1.22-0.59s-0.37-0.39-0.37-0.54s0.06-0.22,0.19-0.22c0.05,0,0.1,0.02,0.17,0.05
			c0.02,0.02,0.03,0.03,0.05,0.05c0.02,0.02,0.03,0.04,0.05,0.06c0.02,0.02,0.04,0.05,0.07,0.09c0.3,0.31,0.66,0.47,1.08,0.47
			s0.77-0.16,1.07-0.48c0.29-0.32,0.44-0.74,0.44-1.27c0-0.52-0.17-0.95-0.52-1.29s-0.81-0.5-1.37-0.5c-0.57,0-1.04,0.21-1.4,0.63
			c-0.36,0.42-0.54,0.91-0.54,1.49s0.15,1.05,0.46,1.44c0.31,0.39,0.71,0.67,1.2,0.85c0.96,0.34,1.91,0.52,2.84,0.52
			c2.07,0,3.62-0.31,4.66-0.93c1.04-0.62,1.55-1.46,1.55-2.51c0-0.69-0.23-1.3-0.69-1.84C137.53,75.15,136.97,74.71,136.32,74.35z"
			/>
		<path class="st3" d="M145.43,65.98c-0.35-0.01-1.01-0.01-1.36-0.02c-0.11,0.78-0.43,1.49-0.99,2.11c-0.7,0.76-1.6,1.14-2.73,1.14
			h-0.66v0.34h1.23v7.84c0,2.39,1.06,3.59,3.17,3.59c1.03,0,1.8-0.33,2.32-1c0.52-0.66,0.85-1.6,1-2.81l-0.43-0.05
			c-0.17,1.64-0.56,2.46-1.16,2.46c-0.28,0-0.43-0.34-0.43-1.01v-9.02h2.2v-0.34h-2.2C145.4,67.97,145.38,66.98,145.43,65.98z"/>
		<path class="st3" d="M160.83,79.58c0.6,0,0.99-0.82,1.16-2.46l0.43,0.05c-0.3,2.54-1.4,3.81-3.29,3.81
			c-0.79,0-1.43-0.27-1.92-0.82c-0.49-0.55-0.77-1.21-0.83-1.98h-0.14c-0.22,0.88-0.59,1.57-1.11,2.06s-1.35,0.74-2.48,0.74
			c-1.13,0-2.08-0.26-2.84-0.77c-0.77-0.52-1.15-1.34-1.15-2.47c0-2.44,2.42-3.66,7.27-3.66v-0.81c0-1.59-0.19-2.64-0.57-3.14
			c-0.17-0.23-0.43-0.43-0.77-0.61c-0.34-0.18-0.75-0.27-1.22-0.27c-0.9,0-1.69,0.21-2.38,0.64s-1.03,0.89-1.03,1.4
			c0,0.15,0.07,0.22,0.21,0.22c0.09,0,0.16-0.03,0.19-0.09c0.03-0.06,0.05-0.11,0.07-0.17c0.02-0.06,0.03-0.11,0.05-0.15
			c0.02-0.04,0.05-0.11,0.11-0.21c0.06-0.1,0.19-0.23,0.42-0.39c0.22-0.16,0.52-0.25,0.9-0.25s0.71,0.18,0.98,0.53
			c0.28,0.35,0.42,0.78,0.42,1.29s-0.18,0.94-0.54,1.29c-0.36,0.35-0.82,0.53-1.38,0.53s-1.02-0.2-1.41-0.6
			c-0.39-0.4-0.58-0.89-0.58-1.46c0-0.95,0.42-1.7,1.26-2.25s2.04-0.82,3.61-0.82c1.57,0,2.82,0.21,3.76,0.64
			c0.93,0.43,1.56,1.03,1.9,1.81c0.33,0.78,0.5,1.85,0.5,3.21v4.18C160.4,79.24,160.55,79.58,160.83,79.58z M155.92,76.8v-2.29
			c-0.06,0-0.12,0-0.17,0c-0.74,0-1.37,0.21-1.87,0.63c-0.51,0.42-0.76,1.08-0.76,1.99s0.13,1.57,0.38,1.99s0.59,0.63,1.02,0.63
			c0.43,0,0.77-0.31,1.02-0.93C155.8,78.19,155.92,77.52,155.92,76.8z"/>
	</g>
</g>
</svg>
